<?xml version="1.0" encoding="iso-8859-1"?>
<svg height="200px" width="200px" version="1.1" id="Layer_1" xmlns="http://www.w3.org/2000/svg" xmlns:xlink="http://www.w3.org/1999/xlink"
	 viewBox="0 0 512 350" xml:space="preserve">
<path style="fill:#D6E5F6;" d="M256,76.437c-115.907,0-210.204,94.296-210.204,210.205c0,10.552,8.556,19.109,19.109,19.109h382.189
	c10.553,0,19.109-8.557,19.109-19.109C466.204,170.734,371.908,76.437,256,76.437z"/>
<path style="fill:#BCD6F2;" d="M256,76.437v229.315h191.095c10.553,0,19.109-8.557,19.109-19.109
	C466.204,170.734,371.908,76.437,256,76.437z"/>
<path style="fill:#8CB7E8;" d="M341.469,229.312c-5.246,0-10.471-2.149-14.245-6.365c-18.12-20.243-44.08-31.854-71.224-31.854
	c-10.554,0-19.109-8.555-19.109-19.109c0-10.554,8.556-19.109,19.109-19.109c38.001,0,74.341,16.251,99.702,44.582
	c7.039,7.864,6.37,19.944-1.494,26.984C350.561,227.705,346.007,229.312,341.469,229.312z"/>
<g>
	<path style="fill:#8CB7E8;" d="M485.314,267.533H26.686c-10.554,0-19.109,8.555-19.109,19.109c0,10.552,8.556,19.109,19.109,19.109
		h458.627c10.553,0,19.109-8.557,19.109-19.109C504.423,276.087,495.868,267.533,485.314,267.533z"/>
	<path style="fill:#8CB7E8;" d="M256,0c-31.611,0-57.328,25.718-57.328,57.328s25.718,57.328,57.328,57.328
		s57.328-25.718,57.328-57.328S287.612,0,256,0z"/>
</g>
</svg>
